<?xml version="1.0" encoding="us-ascii" standalone="no"?><svg xmlns="http://www.w3.org/2000/svg" xmlns:xlink="http://www.w3.org/1999/xlink" contentStyleType="text/css" height="1308px" preserveAspectRatio="none" style="width:1654px;height:1308px;background:#FFFFFF;" version="1.1" viewBox="0 0 1654 1308" width="1654px" zoomAndPan="magnify"><defs/><g><text fill="#000000" font-family="sans-serif" font-size="14" font-weight="bold" lengthAdjust="spacing" textLength="192" x="732.25" y="28.1318">Secuencia: Eliminar Sample</text><rect fill="#FFFFFF" height="1069.0498" style="stroke:#181818;stroke-width:1.0;" width="10" x="229" y="149.146"/><rect fill="#FFFFFF" height="714.2646" style="stroke:#181818;stroke-width:1.0;" width="10" x="504" y="302.5386"/><rect fill="#FFFFFF" height="626.4697" style="stroke:#181818;stroke-width:1.0;" width="10" x="837" y="361.3848"/><rect fill="#FFFFFF" height="57.8975" style="stroke:#181818;stroke-width:1.0;" width="10" x="1015" y="390.3335"/><rect fill="#FFFFFF" height="489.7261" style="stroke:#181818;stroke-width:1.0;" width="10" x="1136.5" y="477.1797"/><rect fill="#FFFFFF" height="86.8462" style="stroke:#181818;stroke-width:1.0;" width="10" x="1272.5" y="506.1284"/><rect fill="#FFFFFF" height="86.8462" style="stroke:#181818;stroke-width:1.0;" width="10" x="1272.5" y="719.3672"/><rect fill="#FFFFFF" height="57.8975" style="stroke:#181818;stroke-width:1.0;" width="10" x="1379.5" y="835.1621"/><rect fill="#FFFFFF" height="28.9487" style="stroke:#181818;stroke-width:1.0;" width="10" x="1495.5" y="535.0771"/><rect fill="#FFFFFF" height="28.9487" style="stroke:#181818;stroke-width:1.0;" width="10" x="1495.5" y="748.3159"/><rect fill="none" height="1005.1011" style="stroke:#000000;stroke-width:1.5;" width="1637.5" x="10" y="206.0947"/><rect fill="none" height="351.9312" style="stroke:#000000;stroke-width:1.5;" width="890.5" x="747" y="607.9746"/><rect fill="none" height="172.3926" style="stroke:#000000;stroke-width:1.5;" width="373" x="136" y="1031.8032"/><line style="stroke:#181818;stroke-width:0.5;stroke-dasharray:5.0,5.0;" x1="52" x2="52" y1="118.1973" y2="1228.1958"/><line style="stroke:#181818;stroke-width:0.5;stroke-dasharray:5.0,5.0;" x1="234" x2="234" y1="118.1973" y2="1228.1958"/><line style="stroke:#181818;stroke-width:0.5;stroke-dasharray:5.0,5.0;" x1="509" x2="509" y1="118.1973" y2="1228.1958"/><line style="stroke:#181818;stroke-width:0.5;stroke-dasharray:5.0,5.0;" x1="842" x2="842" y1="118.1973" y2="1228.1958"/><line style="stroke:#181818;stroke-width:0.5;stroke-dasharray:5.0,5.0;" x1="1020" x2="1020" y1="118.1973" y2="1228.1958"/><line style="stroke:#181818;stroke-width:0.5;stroke-dasharray:5.0,5.0;" x1="1141" x2="1141" y1="118.1973" y2="1228.1958"/><line style="stroke:#181818;stroke-width:0.5;stroke-dasharray:5.0,5.0;" x1="1277" x2="1277" y1="118.1973" y2="1228.1958"/><line style="stroke:#181818;stroke-width:0.5;stroke-dasharray:5.0,5.0;" x1="1384" x2="1384" y1="118.1973" y2="1228.1958"/><line style="stroke:#181818;stroke-width:0.5;stroke-dasharray:5.0,5.0;" x1="1500.5" x2="1500.5" y1="118.1973" y2="1228.1958"/><line style="stroke:#181818;stroke-width:0.5;stroke-dasharray:5.0,5.0;" x1="1581.5" x2="1581.5" y1="118.1973" y2="1228.1958"/><text fill="#000000" font-family="sans-serif" font-size="14" lengthAdjust="spacing" textLength="58" x="20" y="115.2305">Producer</text><ellipse cx="52" cy="50.5986" fill="#E2E2F0" rx="8" ry="8" style="stroke:#181818;stroke-width:0.5;"/><path d="M52,58.5986 L52,85.5986 M39,66.5986 L65,66.5986 M52,85.5986 L39,100.5986 M52,85.5986 L65,100.5986 " fill="none" style="stroke:#181818;stroke-width:0.5;"/><text fill="#000000" font-family="sans-serif" font-size="14" lengthAdjust="spacing" textLength="58" x="20" y="1240.3276">Producer</text><ellipse cx="52" cy="1251.7944" fill="#E2E2F0" rx="8" ry="8" style="stroke:#181818;stroke-width:0.5;"/><path d="M52,1259.7944 L52,1286.7944 M39,1267.7944 L65,1267.7944 M52,1286.7944 L39,1301.7944 M52,1286.7944 L65,1301.7944 " fill="none" style="stroke:#181818;stroke-width:0.5;"/><rect fill="#E2E2F0" height="30.0986" rx="2.5" ry="2.5" style="stroke:#181818;stroke-width:0.5;" width="176" x="146" y="87.0986"/><text fill="#000000" font-family="sans-serif" font-size="14" lengthAdjust="spacing" textLength="162" x="153" y="107.2305">samplesFrontController.js</text><rect fill="#E2E2F0" height="30.0986" rx="2.5" ry="2.5" style="stroke:#181818;stroke-width:0.5;" width="176" x="146" y="1227.1958"/><text fill="#000000" font-family="sans-serif" font-size="14" lengthAdjust="spacing" textLength="162" x="153" y="1247.3276">samplesFrontController.js</text><rect fill="#E2E2F0" height="30.0986" rx="2.5" ry="2.5" style="stroke:#181818;stroke-width:0.5;" width="94" x="462" y="87.0986"/><text fill="#000000" font-family="sans-serif" font-size="14" lengthAdjust="spacing" textLength="80" x="469" y="107.2305">apiService.js</text><rect fill="#E2E2F0" height="30.0986" rx="2.5" ry="2.5" style="stroke:#181818;stroke-width:0.5;" width="94" x="462" y="1227.1958"/><text fill="#000000" font-family="sans-serif" font-size="14" lengthAdjust="spacing" textLength="80" x="469" y="1247.3276">apiService.js</text><rect fill="#E2E2F0" height="30.0986" rx="2.5" ry="2.5" style="stroke:#181818;stroke-width:0.5;" width="170" x="757" y="87.0986"/><text fill="#000000" font-family="sans-serif" font-size="14" lengthAdjust="spacing" textLength="156" x="764" y="107.2305">DELETE /api/samples/:id</text><rect fill="#E2E2F0" height="30.0986" rx="2.5" ry="2.5" style="stroke:#181818;stroke-width:0.5;" width="170" x="757" y="1227.1958"/><text fill="#000000" font-family="sans-serif" font-size="14" lengthAdjust="spacing" textLength="156" x="764" y="1247.3276">DELETE /api/samples/:id</text><rect fill="#E2E2F0" height="30.0986" rx="2.5" ry="2.5" style="stroke:#181818;stroke-width:0.5;" width="88" x="976" y="87.0986"/><text fill="#000000" font-family="sans-serif" font-size="14" lengthAdjust="spacing" textLength="74" x="983" y="107.2305">verifyToken</text><rect fill="#E2E2F0" height="30.0986" rx="2.5" ry="2.5" style="stroke:#181818;stroke-width:0.5;" width="88" x="976" y="1227.1958"/><text fill="#000000" font-family="sans-serif" font-size="14" lengthAdjust="spacing" textLength="74" x="983" y="1247.3276">verifyToken</text><rect fill="#E2E2F0" height="30.0986" rx="2.5" ry="2.5" style="stroke:#181818;stroke-width:0.5;" width="135" x="1074" y="87.0986"/><text fill="#000000" font-family="sans-serif" font-size="14" lengthAdjust="spacing" textLength="121" x="1081" y="107.2305">sampleController.js</text><rect fill="#E2E2F0" height="30.0986" rx="2.5" ry="2.5" style="stroke:#181818;stroke-width:0.5;" width="135" x="1074" y="1227.1958"/><text fill="#000000" font-family="sans-serif" font-size="14" lengthAdjust="spacing" textLength="121" x="1081" y="1247.3276">sampleController.js</text><rect fill="#E2E2F0" height="30.0986" rx="2.5" ry="2.5" style="stroke:#181818;stroke-width:0.5;" width="107" x="1224" y="87.0986"/><text fill="#000000" font-family="sans-serif" font-size="14" lengthAdjust="spacing" textLength="93" x="1231" y="107.2305">sampleRepo.js</text><rect fill="#E2E2F0" height="30.0986" rx="2.5" ry="2.5" style="stroke:#181818;stroke-width:0.5;" width="107" x="1224" y="1227.1958"/><text fill="#000000" font-family="sans-serif" font-size="14" lengthAdjust="spacing" textLength="93" x="1231" y="1247.3276">sampleRepo.js</text><rect fill="#E2E2F0" height="30.0986" rx="2.5" ry="2.5" style="stroke:#181818;stroke-width:0.5;" width="87" x="1341" y="87.0986"/><text fill="#000000" font-family="sans-serif" font-size="14" lengthAdjust="spacing" textLength="73" x="1348" y="107.2305">fileHelper.js</text><rect fill="#E2E2F0" height="30.0986" rx="2.5" ry="2.5" style="stroke:#181818;stroke-width:0.5;" width="87" x="1341" y="1227.1958"/><text fill="#000000" font-family="sans-serif" font-size="14" lengthAdjust="spacing" textLength="73" x="1348" y="1247.3276">fileHelper.js</text><text fill="#000000" font-family="sans-serif" font-size="14" lengthAdjust="spacing" textLength="46" x="1474.5" y="115.2305">MySQL</text><path d="M1482.5,66.0986 C1482.5,56.0986 1500.5,56.0986 1500.5,56.0986 C1500.5,56.0986 1518.5,56.0986 1518.5,66.0986 L1518.5,92.0986 C1518.5,102.0986 1500.5,102.0986 1500.5,102.0986 C1500.5,102.0986 1482.5,102.0986 1482.5,92.0986 L1482.5,66.0986 " fill="#E2E2F0" style="stroke:#181818;stroke-width:1.5;"/><path d="M1482.5,66.0986 C1482.5,76.0986 1500.5,76.0986 1500.5,76.0986 C1500.5,76.0986 1518.5,76.0986 1518.5,66.0986 " fill="none" style="stroke:#181818;stroke-width:1.5;"/><text fill="#000000" font-family="sans-serif" font-size="14" lengthAdjust="spacing" textLength="46" x="1474.5" y="1240.3276">MySQL</text><path d="M1482.5,1253.2944 C1482.5,1243.2944 1500.5,1243.2944 1500.5,1243.2944 C1500.5,1243.2944 1518.5,1243.2944 1518.5,1253.2944 L1518.5,1279.2944 C1518.5,1289.2944 1500.5,1289.2944 1500.5,1289.2944 C1500.5,1289.2944 1482.5,1289.2944 1482.5,1279.2944 L1482.5,1253.2944 " fill="#E2E2F0" style="stroke:#181818;stroke-width:1.5;"/><path d="M1482.5,1253.2944 C1482.5,1263.2944 1500.5,1263.2944 1500.5,1263.2944 C1500.5,1263.2944 1518.5,1263.2944 1518.5,1253.2944 " fill="none" style="stroke:#181818;stroke-width:1.5;"/><rect fill="#E2E2F0" height="46.1973" style="stroke:#181818;stroke-width:0.5;" width="87" x="1540.5" y="67"/><rect fill="#E2E2F0" height="46.1973" style="stroke:#181818;stroke-width:0.5;" width="87" x="1536.5" y="71"/><text fill="#000000" font-family="sans-serif" font-size="14" lengthAdjust="spacing" textLength="73" x="1543.5" y="91.1318">File System</text><text fill="#000000" font-family="sans-serif" font-size="14" lengthAdjust="spacing" textLength="54" x="1553" y="107.2305">uploads/</text><rect fill="#E2E2F0" height="46.1973" style="stroke:#181818;stroke-width:0.5;" width="87" x="1540.5" y="1227.1958"/><rect fill="#E2E2F0" height="46.1973" style="stroke:#181818;stroke-width:0.5;" width="87" x="1536.5" y="1231.1958"/><text fill="#000000" font-family="sans-serif" font-size="14" lengthAdjust="spacing" textLength="73" x="1543.5" y="1251.3276">File System</text><text fill="#000000" font-family="sans-serif" font-size="14" lengthAdjust="spacing" textLength="54" x="1553" y="1267.4263">uploads/</text><rect fill="#FFFFFF" height="1069.0498" style="stroke:#181818;stroke-width:1.0;" width="10" x="229" y="149.146"/><rect fill="#FFFFFF" height="714.2646" style="stroke:#181818;stroke-width:1.0;" width="10" x="504" y="302.5386"/><rect fill="#FFFFFF" height="626.4697" style="stroke:#181818;stroke-width:1.0;" width="10" x="837" y="361.3848"/><rect fill="#FFFFFF" height="57.8975" style="stroke:#181818;stroke-width:1.0;" width="10" x="1015" y="390.3335"/><rect fill="#FFFFFF" height="489.7261" style="stroke:#181818;stroke-width:1.0;" width="10" x="1136.5" y="477.1797"/><rect fill="#FFFFFF" height="86.8462" style="stroke:#181818;stroke-width:1.0;" width="10" x="1272.5" y="506.1284"/><rect fill="#FFFFFF" height="86.8462" style="stroke:#181818;stroke-width:1.0;" width="10" x="1272.5" y="719.3672"/><rect fill="#FFFFFF" height="57.8975" style="stroke:#181818;stroke-width:1.0;" width="10" x="1379.5" y="835.1621"/><rect fill="#FFFFFF" height="28.9487" style="stroke:#181818;stroke-width:1.0;" width="10" x="1495.5" y="535.0771"/><rect fill="#FFFFFF" height="28.9487" style="stroke:#181818;stroke-width:1.0;" width="10" x="1495.5" y="748.3159"/><polygon fill="#181818" points="217,145.146,227,149.146,217,153.146,221,149.146" style="stroke:#181818;stroke-width:1.0;"/><line style="stroke:#181818;stroke-width:1.0;" x1="52" x2="223" y1="149.146" y2="149.146"/><text fill="#000000" font-family="sans-serif" font-size="13" lengthAdjust="spacing" textLength="158" x="59" y="144.3911">click "Borrar" en un sample</text><line style="stroke:#181818;stroke-width:1.0;" x1="239" x2="281" y1="178.0947" y2="178.0947"/><line style="stroke:#181818;stroke-width:1.0;" x1="281" x2="281" y1="178.0947" y2="191.0947"/><line style="stroke:#181818;stroke-width:1.0;" x1="240" x2="281" y1="191.0947" y2="191.0947"/><polygon fill="#181818" points="250,187.0947,240,191.0947,250,195.0947,246,191.0947" style="stroke:#181818;stroke-width:1.0;"/><text fill="#000000" font-family="sans-serif" font-size="13" lengthAdjust="spacing" textLength="146" x="246" y="173.3398">confirm('&#191;Est&#225;s seguro?')</text><path d="M10,206.0947 L71,206.0947 L71,213.0435 L61,223.0435 L10,223.0435 L10,206.0947 " fill="#EEEEEE" style="stroke:#000000;stroke-width:1.5;"/><rect fill="none" height="1005.1011" style="stroke:#000000;stroke-width:1.5;" width="1637.5" x="10" y="206.0947"/><text fill="#000000" font-family="sans-serif" font-size="13" font-weight="bold" lengthAdjust="spacing" textLength="16" x="25" y="219.2886">alt</text><text fill="#000000" font-family="sans-serif" font-size="11" font-weight="bold" lengthAdjust="spacing" textLength="54" x="86" y="218.4126">[cancelar]</text><polygon fill="#181818" points="63,239.9922,53,243.9922,63,247.9922,59,243.9922" style="stroke:#181818;stroke-width:1.0;"/><line style="stroke:#181818;stroke-width:1.0;stroke-dasharray:2.0,2.0;" x1="57" x2="228" y1="243.9922" y2="243.9922"/><text fill="#000000" font-family="sans-serif" font-size="13" lengthAdjust="spacing" textLength="78" x="69" y="239.2373">no hace nada</text><line style="stroke:#000000;stroke-width:1.0;stroke-dasharray:2.0,2.0;" x1="10" x2="1647.5" y1="252.9922" y2="252.9922"/><text fill="#000000" font-family="sans-serif" font-size="11" font-weight="bold" lengthAdjust="spacing" textLength="71" x="15" y="263.3101">[confirmado]</text><polygon fill="#181818" points="492,298.5386,502,302.5386,492,306.5386,496,302.5386" style="stroke:#181818;stroke-width:1.0;"/><line style="stroke:#181818;stroke-width:1.0;" x1="239" x2="498" y1="302.5386" y2="302.5386"/><text fill="#000000" font-family="sans-serif" font-size="13" lengthAdjust="spacing" textLength="137" x="246" y="282.835">request('/samples/${id}',</text><text fill="#000000" font-family="sans-serif" font-size="13" lengthAdjust="spacing" textLength="58" x="290" y="297.7837">'DELETE')</text><polygon fill="#181818" points="825,357.3848,835,361.3848,825,365.3848,829,361.3848" style="stroke:#181818;stroke-width:1.0;"/><line style="stroke:#181818;stroke-width:1.0;" x1="514" x2="831" y1="361.3848" y2="361.3848"/><text fill="#000000" font-family="sans-serif" font-size="13" lengthAdjust="spacing" textLength="136" x="521" y="326.7324">fetch('/api/samples/{id}',</text><text fill="#000000" font-family="sans-serif" font-size="13" lengthAdjust="spacing" textLength="113" x="577" y="341.6812">{method: 'DELETE',</text><text fill="#000000" font-family="sans-serif" font-size="13" lengthAdjust="spacing" textLength="244" x="581" y="356.6299">headers: {Authorization: Bearer &lt;token&gt;}})</text><polygon fill="#181818" points="1003,386.3335,1013,390.3335,1003,394.3335,1007,390.3335" style="stroke:#181818;stroke-width:1.0;"/><line style="stroke:#181818;stroke-width:1.0;" x1="847" x2="1009" y1="390.3335" y2="390.3335"/><text fill="#000000" font-family="sans-serif" font-size="13" lengthAdjust="spacing" textLength="149" x="854" y="385.5786">verifyToken(req, res, next)</text><polygon fill="#181818" points="858,415.2822,848,419.2822,858,423.2822,854,419.2822" style="stroke:#181818;stroke-width:1.0;"/><line style="stroke:#181818;stroke-width:1.0;stroke-dasharray:2.0,2.0;" x1="852" x2="1014" y1="419.2822" y2="419.2822"/><text fill="#000000" font-family="sans-serif" font-size="13" lengthAdjust="spacing" textLength="136" x="864" y="414.5273">req.userId = decoded.id</text><polygon fill="#181818" points="858,444.231,848,448.231,858,452.231,854,448.231" style="stroke:#181818;stroke-width:1.0;"/><line style="stroke:#181818;stroke-width:1.0;stroke-dasharray:2.0,2.0;" x1="852" x2="1019" y1="448.231" y2="448.231"/><text fill="#000000" font-family="sans-serif" font-size="13" lengthAdjust="spacing" textLength="33" x="864" y="443.4761">next()</text><polygon fill="#181818" points="1124.5,473.1797,1134.5,477.1797,1124.5,481.1797,1128.5,477.1797" style="stroke:#181818;stroke-width:1.0;"/><line style="stroke:#181818;stroke-width:1.0;" x1="847" x2="1130.5" y1="477.1797" y2="477.1797"/><text fill="#000000" font-family="sans-serif" font-size="13" lengthAdjust="spacing" textLength="232" x="854" y="472.4248">sampleController.deleteSample(req, res)</text><polygon fill="#181818" points="1260.5,502.1284,1270.5,506.1284,1260.5,510.1284,1264.5,506.1284" style="stroke:#181818;stroke-width:1.0;"/><line style="stroke:#181818;stroke-width:1.0;" x1="1146.5" x2="1266.5" y1="506.1284" y2="506.1284"/><text fill="#000000" font-family="sans-serif" font-size="13" lengthAdjust="spacing" textLength="107" x="1153.5" y="501.3735">findById(id, userId)</text><polygon fill="#181818" points="1483.5,531.0771,1493.5,535.0771,1483.5,539.0771,1487.5,535.0771" style="stroke:#181818;stroke-width:1.0;"/><line style="stroke:#181818;stroke-width:1.0;" x1="1282.5" x2="1489.5" y1="535.0771" y2="535.0771"/><text fill="#000000" font-family="sans-serif" font-size="13" lengthAdjust="spacing" textLength="194" x="1289.5" y="530.3223">CALL sp_find_sample_by_id(?, ?)</text><polygon fill="#181818" points="1293.5,560.0259,1283.5,564.0259,1293.5,568.0259,1289.5,564.0259" style="stroke:#181818;stroke-width:1.0;"/><line style="stroke:#181818;stroke-width:1.0;stroke-dasharray:2.0,2.0;" x1="1287.5" x2="1499.5" y1="564.0259" y2="564.0259"/><text fill="#000000" font-family="sans-serif" font-size="13" lengthAdjust="spacing" textLength="66" x="1299.5" y="559.271">sample row</text><polygon fill="#181818" points="1157.5,588.9746,1147.5,592.9746,1157.5,596.9746,1153.5,592.9746" style="stroke:#181818;stroke-width:1.0;"/><line style="stroke:#181818;stroke-width:1.0;stroke-dasharray:2.0,2.0;" x1="1151.5" x2="1276.5" y1="592.9746" y2="592.9746"/><text fill="#000000" font-family="sans-serif" font-size="13" lengthAdjust="spacing" textLength="81" x="1163.5" y="588.2197">sample or null</text><path d="M747,607.9746 L808,607.9746 L808,614.9233 L798,624.9233 L747,624.9233 L747,607.9746 " fill="#EEEEEE" style="stroke:#000000;stroke-width:1.5;"/><rect fill="none" height="351.9312" style="stroke:#000000;stroke-width:1.5;" width="890.5" x="747" y="607.9746"/><text fill="#000000" font-family="sans-serif" font-size="13" font-weight="bold" lengthAdjust="spacing" textLength="16" x="762" y="621.1685">alt</text><text fill="#000000" font-family="sans-serif" font-size="11" font-weight="bold" lengthAdjust="spacing" textLength="188" x="823" y="620.2925">[!sample (no existe o no es suyo)]</text><polygon fill="#181818" points="858,671.7695,848,675.7695,858,679.7695,854,675.7695" style="stroke:#181818;stroke-width:1.0;"/><line style="stroke:#181818;stroke-width:1.0;stroke-dasharray:2.0,2.0;" x1="852" x2="1135.5" y1="675.7695" y2="675.7695"/><text fill="#000000" font-family="sans-serif" font-size="13" lengthAdjust="spacing" textLength="57" x="864" y="641.1172">HTTP 404</text><text fill="#000000" font-family="sans-serif" font-size="13" lengthAdjust="spacing" textLength="120" x="864" y="656.0659">"El sample no existe</text><text fill="#000000" font-family="sans-serif" font-size="13" lengthAdjust="spacing" textLength="126" x="864" y="671.0146">o no tienes permisos"</text><line style="stroke:#000000;stroke-width:1.0;stroke-dasharray:2.0,2.0;" x1="747" x2="1637.5" y1="684.7695" y2="684.7695"/><text fill="#000000" font-family="sans-serif" font-size="11" font-weight="bold" lengthAdjust="spacing" textLength="86" x="752" y="695.0874">[sample existe]</text><polygon fill="#181818" points="1260.5,715.3672,1270.5,719.3672,1260.5,723.3672,1264.5,719.3672" style="stroke:#181818;stroke-width:1.0;"/><line style="stroke:#181818;stroke-width:1.0;" x1="1146.5" x2="1266.5" y1="719.3672" y2="719.3672"/><text fill="#000000" font-family="sans-serif" font-size="13" lengthAdjust="spacing" textLength="96" x="1153.5" y="714.6123">delete(id, userId)</text><polygon fill="#181818" points="1483.5,744.3159,1493.5,748.3159,1483.5,752.3159,1487.5,748.3159" style="stroke:#181818;stroke-width:1.0;"/><line style="stroke:#181818;stroke-width:1.0;" x1="1282.5" x2="1489.5" y1="748.3159" y2="748.3159"/><text fill="#000000" font-family="sans-serif" font-size="13" lengthAdjust="spacing" textLength="171" x="1289.5" y="743.561">CALL sp_delete_sample(?, ?)</text><polygon fill="#181818" points="1293.5,773.2646,1283.5,777.2646,1293.5,781.2646,1289.5,777.2646" style="stroke:#181818;stroke-width:1.0;"/><line style="stroke:#181818;stroke-width:1.0;stroke-dasharray:2.0,2.0;" x1="1287.5" x2="1499.5" y1="777.2646" y2="777.2646"/><text fill="#000000" font-family="sans-serif" font-size="13" lengthAdjust="spacing" textLength="77" x="1299.5" y="772.5098">affectedRows</text><polygon fill="#181818" points="1157.5,802.2134,1147.5,806.2134,1157.5,810.2134,1153.5,806.2134" style="stroke:#181818;stroke-width:1.0;"/><line style="stroke:#181818;stroke-width:1.0;stroke-dasharray:2.0,2.0;" x1="1151.5" x2="1276.5" y1="806.2134" y2="806.2134"/><text fill="#000000" font-family="sans-serif" font-size="13" lengthAdjust="spacing" textLength="14" x="1163.5" y="801.4585">ok</text><polygon fill="#181818" points="1367.5,831.1621,1377.5,835.1621,1367.5,839.1621,1371.5,835.1621" style="stroke:#181818;stroke-width:1.0;"/><line style="stroke:#181818;stroke-width:1.0;" x1="1146.5" x2="1373.5" y1="835.1621" y2="835.1621"/><text fill="#000000" font-family="sans-serif" font-size="13" lengthAdjust="spacing" textLength="158" x="1153.5" y="830.4072">deleteFile(sample.file_path)</text><polygon fill="#181818" points="1570,860.1108,1580,864.1108,1570,868.1108,1574,864.1108" style="stroke:#181818;stroke-width:1.0;"/><line style="stroke:#181818;stroke-width:1.0;stroke-dasharray:2.0,2.0;" x1="1389.5" x2="1576" y1="864.1108" y2="864.1108"/><text fill="#000000" font-family="sans-serif" font-size="13" lengthAdjust="spacing" textLength="34" x="1396.5" y="859.356">unlink</text><polygon fill="#181818" points="1157.5,889.0596,1147.5,893.0596,1157.5,897.0596,1153.5,893.0596" style="stroke:#181818;stroke-width:1.0;"/><line style="stroke:#181818;stroke-width:1.0;stroke-dasharray:2.0,2.0;" x1="1151.5" x2="1383.5" y1="893.0596" y2="893.0596"/><text fill="#000000" font-family="sans-serif" font-size="13" lengthAdjust="spacing" textLength="14" x="1163.5" y="888.3047">ok</text><polygon fill="#181818" points="858,947.9058,848,951.9058,858,955.9058,854,951.9058" style="stroke:#181818;stroke-width:1.0;"/><line style="stroke:#181818;stroke-width:1.0;stroke-dasharray:2.0,2.0;" x1="852" x2="1135.5" y1="951.9058" y2="951.9058"/><text fill="#000000" font-family="sans-serif" font-size="13" lengthAdjust="spacing" textLength="57" x="864" y="917.2534">HTTP 200</text><text fill="#000000" font-family="sans-serif" font-size="13" lengthAdjust="spacing" textLength="123" x="864" y="932.2021">"Registro eliminado y</text><text fill="#000000" font-family="sans-serif" font-size="13" lengthAdjust="spacing" textLength="134" x="864" y="947.1509">archivo f&#237;sico removido"</text><polygon fill="#181818" points="525,983.8545,515,987.8545,525,991.8545,521,987.8545" style="stroke:#181818;stroke-width:1.0;"/><line style="stroke:#181818;stroke-width:1.0;stroke-dasharray:2.0,2.0;" x1="519" x2="841" y1="987.8545" y2="987.8545"/><text fill="#000000" font-family="sans-serif" font-size="13" lengthAdjust="spacing" textLength="91" x="531" y="983.0996">JSON response</text><polygon fill="#181818" points="250,1012.8032,240,1016.8032,250,1020.8032,246,1016.8032" style="stroke:#181818;stroke-width:1.0;"/><line style="stroke:#181818;stroke-width:1.0;stroke-dasharray:2.0,2.0;" x1="244" x2="508" y1="1016.8032" y2="1016.8032"/><text fill="#000000" font-family="sans-serif" font-size="13" lengthAdjust="spacing" textLength="77" x="256" y="1012.0483">parsed JSON</text><path d="M136,1031.8032 L197,1031.8032 L197,1038.752 L187,1048.752 L136,1048.752 L136,1031.8032 " fill="#EEEEEE" style="stroke:#000000;stroke-width:1.5;"/><rect fill="none" height="172.3926" style="stroke:#000000;stroke-width:1.5;" width="373" x="136" y="1031.8032"/><text fill="#000000" font-family="sans-serif" font-size="13" font-weight="bold" lengthAdjust="spacing" textLength="16" x="151" y="1044.9971">alt</text><text fill="#000000" font-family="sans-serif" font-size="11" font-weight="bold" lengthAdjust="spacing" textLength="64" x="212" y="1044.1211">[status 200]</text><line style="stroke:#181818;stroke-width:1.0;" x1="239" x2="281" y1="1084.6494" y2="1084.6494"/><line style="stroke:#181818;stroke-width:1.0;" x1="281" x2="281" y1="1084.6494" y2="1097.6494"/><line style="stroke:#181818;stroke-width:1.0;" x1="240" x2="281" y1="1097.6494" y2="1097.6494"/><polygon fill="#181818" points="250,1093.6494,240,1097.6494,250,1101.6494,246,1097.6494" style="stroke:#181818;stroke-width:1.0;"/><text fill="#000000" font-family="sans-serif" font-size="13" lengthAdjust="spacing" textLength="134" x="246" y="1064.9458">showModal('Eliminado',</text><text fill="#000000" font-family="sans-serif" font-size="13" lengthAdjust="spacing" textLength="163" x="334" y="1079.8945">'El sample ha sido borrado.')</text><line style="stroke:#181818;stroke-width:1.0;" x1="239" x2="281" y1="1126.5981" y2="1126.5981"/><line style="stroke:#181818;stroke-width:1.0;" x1="281" x2="281" y1="1126.5981" y2="1139.5981"/><line style="stroke:#181818;stroke-width:1.0;" x1="240" x2="281" y1="1139.5981" y2="1139.5981"/><polygon fill="#181818" points="250,1135.5981,240,1139.5981,250,1143.5981,246,1139.5981" style="stroke:#181818;stroke-width:1.0;"/><text fill="#000000" font-family="sans-serif" font-size="13" lengthAdjust="spacing" textLength="83" x="246" y="1121.8433">loadSamples()</text><line style="stroke:#000000;stroke-width:1.0;stroke-dasharray:2.0,2.0;" x1="136" x2="509" y1="1148.5981" y2="1148.5981"/><text fill="#000000" font-family="sans-serif" font-size="11" font-weight="bold" lengthAdjust="spacing" textLength="64" x="141" y="1158.916">[status 404]</text><line style="stroke:#181818;stroke-width:1.0;" x1="239" x2="281" y1="1183.1958" y2="1183.1958"/><line style="stroke:#181818;stroke-width:1.0;" x1="281" x2="281" y1="1183.1958" y2="1196.1958"/><line style="stroke:#181818;stroke-width:1.0;" x1="240" x2="281" y1="1196.1958" y2="1196.1958"/><polygon fill="#181818" points="250,1192.1958,240,1196.1958,250,1200.1958,246,1196.1958" style="stroke:#181818;stroke-width:1.0;"/><text fill="#000000" font-family="sans-serif" font-size="13" lengthAdjust="spacing" textLength="196" x="246" y="1178.4409">showModal('Error', error.message)</text><!--SRC=[XLLHRjiu4FtNAMQD1Qm0hXCi-cMq2PgkYtQHTjiudmOCcXn5tD2abgISUeCSfWVe6Ggq5-kGb6LRLhO235lqp9itysQ6Ndg5C4DUe-QIJM2gv4fgPc76LfN2B6FS6mk3ZzQ8cgCT07DGExHPnQoNN5PCUnYuQEtUMAFzQ_fOenJQyJyksXTuQCqgEKExbXot5dHoQFBdz6fwCuLJ-kEq0J-TI16DhQbz1t6DLXQR6tE7EfgazpwEn-oujwhFyXehixMnzFlGff0AtwAg6foOPfa9vjcIEOJ1-ytiqrNq5SkCXu3SIwCT3Dx8KFADyxYQwxfIXWbtckhaiYpK5fwTKyrW0bn9VWU3IsCjezAZXbf3OXU4aMlcCLGt8-lMn-X2sbK-_FvjwloFBmuStjRMN0nFI4tbWJFDKJ6R0Jt1aJnZr0be0oNZ29e9bg6YF1eq9anhVXxK8cEB_zReV3vi1VhzGOh7uMYkOVSCav8KFBorf8FWwOIm239gIg05UbuIvBxkFQZqFApGbqPCsWX75b0Y4sZT11vUrMHhvNyiQ321IsIM4dxXGyESFpvsoAK6YsU95n5C7KKCzrejfnACg0vk11e_-mvAquFXh75-jfSekOv3rTy9U0a2kH4enb8yPHxmynH0O3V48TFGp-HnrEu25NfCSzqoxt2Ein2F8aeWG9qVT95QN6xUYLoA4IJUtQA54KbCWWkvYYKvldvrTGMkMWI0HUAqM6uMKkGN8xZeOD2en0oNAVSKEZbHVlVTzCbyBs0tTQ2zfMkbkbuxec4QVckCS-fz_2nfAi64EK2QctfZ4i5TGVOaUNjpyn6UdpsVwy5KRMEsA7CTORn4JL2q9bRI6JU8S76o6eTatOdIvfuqEohw4uL_ilW9fYd_Nk7xYdyi02iAMbuehiszsvaSoz0dXRdhypYalCsvADkCmuxC4zrnsBIBYlcoXpEjtEqPUOUuXIEGMYkfxxf__IybGlg5r7-SdP7KrtXBWbcIETsKmi1cJXScB-NQGF7ZgvFSK88hivR2D7fhaNMxC4xQtjosQ_MlsTyVmcHMT5dWKU_6pTJkpUtEfvl9eOYkNO_TegLcTvxvseLCThNPtHokDFVlZM0g7qwtoVLirUrYtpLzoS1Hih0CzvGmu-597touwDBsSSqcItEGED4W_OgJjSOEHu3XUxn2vzWjdhG5ZaNU5nH_0W00]--></g></svg>